<?xml version="1.0" encoding="iso-8859-1"?>
<!-- Uploaded to: SVG Repo, www.svgrepo.com, Generator: SVG Repo Mixer Tools -->
<svg height="800px" width="800px" version="1.1" id="Layer_1" xmlns="http://www.w3.org/2000/svg" xmlns:xlink="http://www.w3.org/1999/xlink" 
	 viewBox="0 0 496 496" xml:space="preserve">
<path style="fill:#BEC6C4;" d="M432,244c0,16-12.8,28-28,28H92c-16,0-28-12.8-28-28V28C64,12,76.8,0,92,0h311.2c16,0,28,12.8,28,28
	v216H432z"/>
<path style="fill:#ACB7B4;" d="M404,0c16,0,28,12.8,28,28v212c0,16-12.8,32-28,32H92c-16,0-28-14.4-28-30.4"/>
<path style="fill:#9FAAA7;" d="M288,488.8c0,6.4-7.2,7.2-13.6,7.2h-52.8c-6.4,0-13.6-0.8-13.6-7.2V297.6c0-6.4,7.2-9.6,13.6-9.6
	h52.8c6.4,0,13.6,2.4,13.6,9.6V488.8z"/>
<path style="fill:#85938E;" d="M288,460.8c0,6.4-7.2,11.2-13.6,11.2h-52.8c-6.4,0-13.6-4-13.6-11.2V269.6c0-6.4,7.2-13.6,13.6-13.6
	h52.8c6.4,0,13.6,7.2,13.6,13.6V460.8z"/>
<path style="fill:#BEC6C4;" d="M336,410.4c0,16-12.8,29.6-29.6,29.6H189.6c-16,0-29.6-12.8-29.6-29.6v-37.6
	c0-16,12.8-29.6,29.6-29.6h117.6c16,0,29.6,12.8,29.6,29.6v37.6H336z"/>
<path style="fill:#9FAAA7;" d="M308,344H188c-16,0-28,15.2-28,31.2V408c0,3.2,0,8,0.8,8h174.4c0.8,0,0.8-4.8,0.8-8v-32.8
	C336,359.2,324,344,308,344z"/>
<path style="fill:#BEC6C4;" d="M472,372c0,16-12.8,28-28,28H52c-16,0-28-12.8-28-28V76c0-15.2,12.8-28,28-28h391.2
	c16,0,28,12.8,28,28v296H472z"/>
<path style="fill:#D1DBD6;" d="M52,397.6c-16,0-28-12.8-28-28v-292C24,61.6,36.8,48,52,48h391.2c16,0,28,12.8,28,28.8"/>
<path style="fill:#DDE8E3;" d="M24,76.8C24,60.8,36.8,48,52,48h391.2c16,0,28,12.8,28,28.8"/>
<circle style="fill:#BEC6C4;" cx="248" cy="234.4" r="37.6"/>
<circle style="fill:#37F7D7;" cx="248" cy="223.2" r="37.6"/>
<path style="fill:#24E2CB;" d="M274.4,196.8c14.4,14.4,14.4,38.4,0,53.6c-14.4,14.4-38.4,14.4-53.6,0"/>
</svg>