<?xml version="1.0" encoding="iso-8859-1"?>
<!-- Uploaded to: SVG Repo, www.svgrepo.com, Generator: SVG Repo Mixer Tools -->
<svg height="800px" width="800px" version="1.1" id="Layer_1" xmlns="http://www.w3.org/2000/svg" xmlns:xlink="http://www.w3.org/1999/xlink" 
	 viewBox="0 0 512 512" xml:space="preserve">
<g>
	<path style="fill:#DBDDDD;" d="M247.63,512c-76.26,0-138.3-62.042-138.3-138.3s62.041-138.3,138.3-138.3s138.3,62.041,138.3,138.3
		S323.89,512,247.63,512z M247.63,251.602c-67.325,0-122.098,54.773-122.098,122.098s54.773,122.098,122.098,122.098
		s122.098-54.773,122.098-122.098C369.729,306.375,314.956,251.602,247.63,251.602z"/>
	<path style="fill:#DBDDDD;" d="M249.625,512c-103.266,0-187.281-84.013-187.281-187.281V243.5c0-4.475,3.627-8.101,8.101-8.101
		c4.474,0,8.101,3.626,8.101,8.101v81.219c0,94.332,76.746,171.078,171.078,171.078s171.078-76.746,171.078-171.078v-156.34
		c0-4.475,3.627-8.101,8.101-8.101s8.101,3.626,8.101,8.101v156.34C436.906,427.987,352.893,512,249.625,512z"/>
</g>
<path style="fill:#C8CCCC;" d="M408.822,140.654v23.044c0,7.159,5.804,12.962,12.962,12.962h13.682
	c7.159,0,12.962-5.803,12.962-12.962v-23.044H408.822z"/>
<path style="fill:#688787;" d="M95.257,101.948H45.636c-3.131,0-5.671,2.538-5.671,5.671v10.802v29.605v10.802h60.966v-10.802
	v-29.605v-10.802C100.929,104.486,98.389,101.948,95.257,101.948z"/>
<path style="opacity:0.15;fill:#231F20;enable-background:new    ;" d="M57.247,118.421v-10.802c0-3.132,2.539-5.671,5.671-5.671
	H45.636c-3.131,0-5.671,2.538-5.671,5.671v10.802v29.605v10.802h17.283v-10.802V118.421z"/>
<path style="fill:#9DC6C5;" d="M78.07,131.788H62.407c-4.475,0-8.101-3.626-8.101-8.101s3.626-8.101,8.101-8.101H78.07
	c4.475,0,8.101,3.626,8.101,8.101S82.545,131.788,78.07,131.788z"/>
<g>
	<path style="fill:#547475;" d="M401.621,54.781c-4.474,0-8.101-3.626-8.101-8.101V8.101c0-4.475,3.627-8.101,8.101-8.101
		s8.101,3.626,8.101,8.101v38.578C409.723,51.154,406.095,54.781,401.621,54.781z"/>
	<path style="fill:#547475;" d="M455.63,54.781c-4.474,0-8.101-3.626-8.101-8.101V8.101c0-4.475,3.627-8.101,8.101-8.101
		s8.101,3.626,8.101,8.101v38.578C463.731,51.154,460.104,54.781,455.63,54.781z"/>
</g>
<path style="fill:#C8CCCC;" d="M54.032,229.409c0,7.159,5.804,12.962,12.962,12.962h6.906c7.158,0,12.962-5.803,12.962-12.962
	v-14.902h-32.83V229.409z"/>
<g>
	<path style="fill:#DBDDDD;" d="M106.843,202.967c0,7.344-5.955,13.298-13.3,13.298H47.348c-7.345,0-13.3-5.955-13.3-13.298v-42.722
		c0-7.344,5.955-13.3,13.3-13.3h46.196c7.345,0,13.3,5.956,13.3,13.3C106.843,160.245,106.843,202.967,106.843,202.967z"/>
	<path style="fill:#DBDDDD;" d="M477.953,131.293c0,7.159-5.803,12.962-12.962,12.962h-72.731c-7.158,0-12.962-5.803-12.962-12.962
		V58.561c0-7.159,5.804-12.962,12.962-12.962h72.731c7.159,0,12.962,5.803,12.962,12.962V131.293z"/>
</g>
<g>
	<path style="opacity:0.15;fill:#231F20;enable-background:new    ;" d="M51.331,202.967v-42.722c0-7.344,5.954-13.3,13.3-13.3
		H47.349c-7.345,0-13.3,5.956-13.3,13.3v42.722c0,7.344,5.955,13.298,13.3,13.298h17.283
		C57.285,216.266,51.331,210.311,51.331,202.967z"/>
	<path style="opacity:0.15;fill:#231F20;enable-background:new    ;" d="M396.58,131.293V58.561c0-7.159,5.803-12.962,12.962-12.962
		h-17.283c-7.158,0-12.962,5.803-12.962,12.962v72.732c0,7.159,5.804,12.962,12.962,12.962h17.283
		C402.383,144.255,396.58,138.453,396.58,131.293z"/>
</g>
</svg>