<?xml version="1.0" encoding="iso-8859-1"?>
<!-- Uploaded to: SVG Repo, www.svgrepo.com, Generator: SVG Repo Mixer Tools -->
<svg version="1.1" id="Layer_1" xmlns="http://www.w3.org/2000/svg" xmlns:xlink="http://www.w3.org/1999/xlink" 
	 viewBox="0 0 512 512" xml:space="preserve">
<circle style="fill:#2D4452;" cx="256" cy="256" r="256"/>
<path style="fill:#CCCCCC;" d="M200,180c0-4.4-3.6-8-8-8h-32c-4.4,0-8,3.6-8,8v56c0,4.4,3.6,8,8,8h32c4.4,0,8-3.6,8-8V180z"/>
<rect x="160" y="148" style="fill:#F5F5F5;" width="32" height="24"/>
<path style="fill:#CCCCCC;" d="M360,308c0,4.4-3.6,8-8,8h-32c-4.4,0-8-3.6-8-8v-56c0-4.4,3.6-8,8-8h32c4.4,0,8,3.6,8,8V308z"/>
<rect x="324" y="316" style="fill:#F5F5F5;" width="24" height="24"/>
<g>
	<rect x="168" y="152" style="fill:#CCCCCC;" width="4" height="12"/>
	<rect x="180" y="152" style="fill:#CCCCCC;" width="4" height="12"/>
</g>
<rect x="160" y="168" style="fill:#E6E6E6;" width="32" height="4"/>
<path style="fill:#F5F5F5;" d="M216,396c-26.468,0-48-21.532-48-48V244h16v104c0,17.644,14.356,32,32,32s32-14.356,32-32V152
	c0-26.468,21.532-48,48-48s48,21.532,48,48v92h-16v-92c0-17.644-14.356-32-32-32s-32,14.356-32,32v196
	C264,374.468,242.468,396,216,396z"/>
<rect x="168" y="244" style="fill:#B3B3B3;" width="16" height="4"/>
<rect x="324" y="316" style="fill:#E6E6E6;" width="24" height="4"/>
<rect x="328" y="240" style="fill:#B3B3B3;" width="16" height="4"/>
</svg>